<mxfile host="app.diagrams.net" agent="Mozilla/5.0 (X11; Linux x86_64) AppleWebKit/537.36 (KHTML, like Gecko) Chrome/129.0.0.0 Safari/537.36" version="24.7.16">
  <diagram name="Page-1" id="rNdpRZ86mS_dMvVrNEBS">
    <mxGraphModel dx="880" dy="516" grid="1" gridSize="10" guides="1" tooltips="1" connect="1" arrows="1" fold="1" page="1" pageScale="1" pageWidth="850" pageHeight="1100" math="0" shadow="0">
      <root>
        <mxCell id="0" />
        <mxCell id="1" parent="0" />
        <mxCell id="Hr1ISlO8dgCflrBcIG9d-1" value="" style="whiteSpace=wrap;html=1;" vertex="1" parent="1">
          <mxGeometry x="360" y="70" width="240" height="460" as="geometry" />
        </mxCell>
        <mxCell id="Hr1ISlO8dgCflrBcIG9d-12" style="edgeStyle=orthogonalEdgeStyle;rounded=0;orthogonalLoop=1;jettySize=auto;html=1;exitX=1;exitY=0.3333333333333333;exitDx=0;exitDy=0;exitPerimeter=0;entryX=0;entryY=0.5;entryDx=0;entryDy=0;" edge="1" parent="1" source="Hr1ISlO8dgCflrBcIG9d-2" target="Hr1ISlO8dgCflrBcIG9d-10">
          <mxGeometry relative="1" as="geometry" />
        </mxCell>
        <mxCell id="Hr1ISlO8dgCflrBcIG9d-14" style="edgeStyle=orthogonalEdgeStyle;rounded=0;orthogonalLoop=1;jettySize=auto;html=1;exitX=1;exitY=0.3333333333333333;exitDx=0;exitDy=0;exitPerimeter=0;entryX=0;entryY=0.5;entryDx=0;entryDy=0;" edge="1" parent="1" source="Hr1ISlO8dgCflrBcIG9d-2" target="Hr1ISlO8dgCflrBcIG9d-3">
          <mxGeometry relative="1" as="geometry" />
        </mxCell>
        <mxCell id="Hr1ISlO8dgCflrBcIG9d-16" style="edgeStyle=orthogonalEdgeStyle;rounded=0;orthogonalLoop=1;jettySize=auto;html=1;exitX=1;exitY=0.3333333333333333;exitDx=0;exitDy=0;exitPerimeter=0;entryX=0;entryY=0.5;entryDx=0;entryDy=0;" edge="1" parent="1" source="Hr1ISlO8dgCflrBcIG9d-2" target="Hr1ISlO8dgCflrBcIG9d-13">
          <mxGeometry relative="1" as="geometry" />
        </mxCell>
        <mxCell id="Hr1ISlO8dgCflrBcIG9d-2" value="Admin" style="shape=umlActor;verticalLabelPosition=bottom;verticalAlign=top;html=1;outlineConnect=0;" vertex="1" parent="1">
          <mxGeometry x="230" y="100" width="30" height="60" as="geometry" />
        </mxCell>
        <mxCell id="Hr1ISlO8dgCflrBcIG9d-3" value="Update Student Status" style="ellipse;whiteSpace=wrap;html=1;" vertex="1" parent="1">
          <mxGeometry x="410" y="210" width="120" height="50" as="geometry" />
        </mxCell>
        <mxCell id="Hr1ISlO8dgCflrBcIG9d-4" value="Use Case" style="text;strokeColor=none;fillColor=none;html=1;fontSize=24;fontStyle=1;verticalAlign=middle;align=center;" vertex="1" parent="1">
          <mxGeometry x="420" y="80" width="100" height="40" as="geometry" />
        </mxCell>
        <mxCell id="Hr1ISlO8dgCflrBcIG9d-5" value="Student Profile" style="ellipse;whiteSpace=wrap;html=1;" vertex="1" parent="1">
          <mxGeometry x="80" y="300" width="120" height="50" as="geometry" />
        </mxCell>
        <mxCell id="Hr1ISlO8dgCflrBcIG9d-6" value="Student" style="shape=umlActor;verticalLabelPosition=bottom;verticalAlign=top;html=1;outlineConnect=0;" vertex="1" parent="1">
          <mxGeometry x="670" y="100" width="30" height="60" as="geometry" />
        </mxCell>
        <mxCell id="Hr1ISlO8dgCflrBcIG9d-10" value="Create Student" style="ellipse;whiteSpace=wrap;html=1;" vertex="1" parent="1">
          <mxGeometry x="410" y="150" width="120" height="50" as="geometry" />
        </mxCell>
        <mxCell id="Hr1ISlO8dgCflrBcIG9d-11" value="Update Student Profile" style="ellipse;whiteSpace=wrap;html=1;" vertex="1" parent="1">
          <mxGeometry x="80" y="360" width="120" height="50" as="geometry" />
        </mxCell>
        <mxCell id="Hr1ISlO8dgCflrBcIG9d-13" value="Student List" style="ellipse;whiteSpace=wrap;html=1;" vertex="1" parent="1">
          <mxGeometry x="410" y="270" width="120" height="50" as="geometry" />
        </mxCell>
      </root>
    </mxGraphModel>
  </diagram>
</mxfile>
